#define BM_back_width 16
#define BM_back_height 16
static unsigned char BM_back_bits[] = {
   0x00, 0x00, 0x00, 0x00, 0x00, 0x10, 0x00, 0x1c, 0x00, 0x1f, 0xc0, 0x1f,
   0xf0, 0x1f, 0xfc, 0x1f, 0xfc, 0x1f, 0xf0, 0x1f, 0xc0, 0x1f, 0x00, 0x1f,
   0x00, 0x1c, 0x00, 0x10, 0x00, 0x00, 0x00, 0x00};
