#define BM_fuzz_width 16
#define BM_fuzz_height 16
static unsigned char BM_fuzz_bits[] = {
   0x00, 0x00, 0x00, 0x00, 0x54, 0x15, 0xa8, 0x2a, 0x54, 0x15, 0xa8, 0x2a,
   0x54, 0x15, 0xa8, 0x2a, 0x54, 0x15, 0xa8, 0x2a, 0x54, 0x15, 0xa8, 0x2a,
   0x54, 0x15, 0xa8, 0x2a, 0x00, 0x00, 0x00, 0x00};
