#define BM_quit_width 16
#define BM_quit_height 16
static unsigned char BM_quit_bits[] = {
   0x00, 0x00, 0x00, 0x00, 0x00, 0x00, 0x00, 0x00, 0x00, 0x00, 0xac, 0x3a,
   0xa4, 0x12, 0x4c, 0x12, 0x44, 0x12, 0xa4, 0x12, 0xac, 0x12, 0x00, 0x00,
   0x00, 0x00, 0x00, 0x00, 0x00, 0x00, 0x00, 0x00};
