#define BM_speed1_width 16
#define BM_speed1_height 16
static unsigned char BM_speed1_bits[] = {
   0x00, 0x00, 0x00, 0x00, 0x00, 0x00, 0x00, 0x00, 0x80, 0x00, 0xe0, 0x03,
   0x70, 0x07, 0x30, 0x06, 0x18, 0x0c, 0x30, 0x06, 0x70, 0x07, 0xe0, 0x03,
   0x80, 0x00, 0x00, 0x00, 0x00, 0x00, 0x00, 0x00};
