#define BM_vol_dn_width 16
#define BM_vol_dn_height 16
static unsigned char BM_vol_dn_bits[] = {
   0x00, 0x00, 0x00, 0x00, 0x00, 0x00, 0x00, 0x00, 0x00, 0x01, 0x80, 0x01,
   0xc0, 0x05, 0xfc, 0x09, 0xfc, 0x09, 0xfc, 0x09, 0xc0, 0x05, 0x80, 0x01,
   0x00, 0x01, 0x00, 0x00, 0x00, 0x00, 0x00, 0x00};
