#define but_circ16_lo_width 16
#define but_circ16_lo_height 16
static unsigned char but_circ16_lo_bits[] = {
   0x00, 0x00, 0x00, 0x00, 0x00, 0x00, 0x00, 0x20, 0x00, 0x60, 0x00, 0x60,
   0x00, 0xc0, 0x00, 0xc0, 0x00, 0xc0, 0x00, 0xc0, 0x00, 0xc0, 0x00, 0x60,
   0x00, 0x60, 0x38, 0x38, 0xf0, 0x1f, 0xc0, 0x07};
