#define but_rtri10_hi_width 10
#define but_rtri10_hi_height 16
static unsigned char but_rtri10_hi_bits[] = {
   0x07, 0x00, 0x0f, 0x00, 0x1b, 0x00, 0x33, 0x00, 0x63, 0x00, 0xc3, 0x00,
   0x83, 0x01, 0x03, 0x03, 0x03, 0x00, 0x03, 0x00, 0x03, 0x00, 0x03, 0x00,
   0x03, 0x00, 0x03, 0x00, 0x03, 0x00, 0x01, 0x00};
