#define but_rstp16_hi_width 16
#define but_rstp16_hi_height 16
static unsigned char but_rstp16_hi_bits[] = {
   0xcf, 0x01, 0xc7, 0x03, 0xc3, 0x06, 0xc3, 0x0c, 0xc3, 0x18, 0xc3, 0x30,
   0xc3, 0x60, 0xc3, 0xc0, 0xc3, 0x00, 0xc3, 0x00, 0xc3, 0x00, 0xc3, 0x00,
   0xc3, 0x00, 0xc3, 0x00, 0xc3, 0x00, 0x41, 0x00};
