#define but_next16_lo_width 16
#define but_next16_lo_height 16
static unsigned char but_next16_lo_bits[] = {
   0x00, 0x00, 0x00, 0x80, 0x00, 0xc0, 0x00, 0xc0, 0x00, 0xc0, 0x00, 0xc0,
   0x00, 0xc0, 0x00, 0xc0, 0x00, 0xc3, 0x80, 0xc1, 0xc0, 0xc0, 0x60, 0xc0,
   0x30, 0xc0, 0x18, 0xc0, 0x0c, 0xc0, 0x06, 0xe0};
