#define but_lstp16_hi_width 16
#define but_lstp16_hi_height 16
static unsigned char but_lstp16_hi_bits[] = {
   0x80, 0xf3, 0xc0, 0x71, 0x60, 0x30, 0x30, 0x30, 0x18, 0x30, 0x0c, 0x30,
   0x06, 0x30, 0x03, 0x30, 0x00, 0x30, 0x00, 0x30, 0x00, 0x30, 0x00, 0x30,
   0x00, 0x30, 0x00, 0x30, 0x00, 0x30, 0x00, 0x10};
