#define but_prev16_lo_width 16
#define but_prev16_lo_height 16
static unsigned char but_prev16_lo_bits[] = {
   0x00, 0x00, 0x08, 0x80, 0x0c, 0xc0, 0x0c, 0xc0, 0x0c, 0xc0, 0x0c, 0xc0,
   0x0c, 0xc0, 0x0c, 0xc0, 0xcc, 0xc0, 0x8c, 0xc1, 0x0c, 0xc3, 0x0c, 0xc6,
   0x0c, 0xcc, 0x0c, 0xd8, 0x0c, 0xf0, 0x0e, 0xe0};
