#define but_ltri10_lo_width 10
#define but_ltri10_lo_height 16
static unsigned char but_ltri10_lo_bits[] = {
   0x00, 0x00, 0x00, 0x02, 0x00, 0x03, 0x00, 0x03, 0x00, 0x03, 0x00, 0x03,
   0x00, 0x03, 0x00, 0x03, 0x03, 0x03, 0x06, 0x03, 0x0c, 0x03, 0x18, 0x03,
   0x30, 0x03, 0x60, 0x03, 0xc0, 0x03, 0x80, 0x03};
