#define but_ltri10_hi_width 10
#define but_ltri10_hi_height 16
static unsigned char but_ltri10_hi_bits[] = {
   0x80, 0x03, 0xc0, 0x01, 0x60, 0x00, 0x30, 0x00, 0x18, 0x00, 0x0c, 0x00,
   0x06, 0x00, 0x03, 0x00, 0x00, 0x00, 0x00, 0x00, 0x00, 0x00, 0x00, 0x00,
   0x00, 0x00, 0x00, 0x00, 0x00, 0x00, 0x00, 0x00};
