#define but_rstp16_lo_width 16
#define but_rstp16_lo_height 16
static unsigned char but_rstp16_lo_bits[] = {
   0x00, 0x00, 0x08, 0x00, 0x0c, 0x00, 0x0c, 0x00, 0x0c, 0x00, 0x0c, 0x00,
   0x0c, 0x00, 0x0c, 0x00, 0x0c, 0xc0, 0x0c, 0x60, 0x0c, 0x30, 0x0c, 0x18,
   0x0c, 0x0c, 0x0c, 0x06, 0x0c, 0x03, 0x8e, 0x01};
