#define but_next16_hi_width 16
#define but_next16_hi_height 16
static unsigned char but_next16_hi_bits[] = {
   0x07, 0xf0, 0x0f, 0x70, 0x1b, 0x30, 0x33, 0x30, 0x63, 0x30, 0xc3, 0x30,
   0x83, 0x31, 0x03, 0x33, 0x03, 0x30, 0x03, 0x30, 0x03, 0x30, 0x03, 0x30,
   0x03, 0x30, 0x03, 0x30, 0x03, 0x30, 0x01, 0x10};
