#define but_plus16_hi_width 16
#define but_plus16_hi_height 16
static unsigned char but_plus16_hi_bits[] = {
   0xe0, 0x03, 0xe0, 0x01, 0x60, 0x00, 0x60, 0x00, 0x60, 0x00, 0x7f, 0xfc,
   0x3f, 0x7c, 0x03, 0x00, 0x03, 0x00, 0x01, 0x00, 0x60, 0x00, 0x60, 0x00,
   0x60, 0x00, 0x60, 0x00, 0x60, 0x00, 0x20, 0x00};
