#define but_sond16_hi_width 16
#define but_sond16_hi_height 20
static unsigned char but_sond16_hi_bits[] = {
   0x00, 0x60, 0x00, 0x30, 0x00, 0x18, 0x00, 0x0c, 0x00, 0x06, 0x00, 0x03,
   0x80, 0x01, 0xff, 0x00, 0x7f, 0x00, 0x03, 0x00, 0x03, 0x00, 0x01, 0x00,
   0x01, 0x00, 0x00, 0x00, 0x00, 0x00, 0x00, 0x00, 0x00, 0x00, 0x00, 0x00,
   0x00, 0x00, 0x00, 0x00};
