#define but_circ16_hi_width 16
#define but_circ16_hi_height 16
static unsigned char but_circ16_hi_bits[] = {
   0xe0, 0x03, 0xf8, 0x0f, 0x1c, 0x1c, 0x06, 0x10, 0x06, 0x00, 0x03, 0x00,
   0x03, 0x00, 0x03, 0x00, 0x03, 0x00, 0x03, 0x00, 0x06, 0x00, 0x06, 0x00,
   0x0c, 0x00, 0x00, 0x00, 0x00, 0x00, 0x00, 0x00};
