#define but_sond16_lo_width 16
#define but_sond16_lo_height 20
static unsigned char but_sond16_lo_bits[] = {
   0x00, 0x00, 0x00, 0x40, 0x00, 0x60, 0x00, 0x60, 0x00, 0x60, 0x00, 0x60,
   0x00, 0x60, 0x00, 0x60, 0x00, 0x60, 0x00, 0x60, 0x00, 0x60, 0x7c, 0x60,
   0xfe, 0x60, 0x80, 0x61, 0x00, 0x63, 0x00, 0x66, 0x00, 0x6c, 0x00, 0x78,
   0x00, 0x70, 0x00, 0x60};
