#define but_prev16_hi_width 16
#define but_prev16_hi_height 16
static unsigned char but_prev16_hi_bits[] = {
   0x0f, 0xe0, 0x07, 0x70, 0x03, 0x18, 0x03, 0x0c, 0x03, 0x06, 0x03, 0x03,
   0x83, 0x01, 0xc3, 0x00, 0x03, 0x00, 0x03, 0x00, 0x03, 0x00, 0x03, 0x00,
   0x03, 0x00, 0x03, 0x00, 0x03, 0x00, 0x01, 0x00};
