#define but_lstp16_lo_width 16
#define but_lstp16_lo_height 16
static unsigned char but_lstp16_lo_bits[] = {
   0x00, 0x00, 0x00, 0x82, 0x00, 0xc3, 0x00, 0xc3, 0x00, 0xc3, 0x00, 0xc3,
   0x00, 0xc3, 0x00, 0xc3, 0x03, 0xc3, 0x06, 0xc3, 0x0c, 0xc3, 0x18, 0xc3,
   0x30, 0xc3, 0x60, 0xc3, 0xc0, 0xc3, 0x80, 0xe3};
