#define but_plus16_lo_width 16
#define but_plus16_lo_height 16
static unsigned char but_plus16_lo_bits[] = {
   0x00, 0x00, 0x00, 0x04, 0x00, 0x06, 0x00, 0x06, 0x00, 0x06, 0x00, 0x06,
   0x00, 0x00, 0x00, 0x80, 0x00, 0xc0, 0x3c, 0xfc, 0x3e, 0xfe, 0x00, 0x06,
   0x00, 0x06, 0x00, 0x06, 0x00, 0x07, 0x80, 0x07};
