#define but_quad10_hi_width 10
#define but_quad10_hi_height 16
static unsigned char but_quad10_hi_bits[] = {
   0xff, 0x03, 0xff, 0x01, 0x03, 0x00, 0x03, 0x00, 0x03, 0x00, 0x03, 0x00,
   0x03, 0x00, 0x03, 0x00, 0x03, 0x00, 0x03, 0x00, 0x03, 0x00, 0x03, 0x00,
   0x03, 0x00, 0x03, 0x00, 0x03, 0x00, 0x01, 0x00};
