#define but_quad16_lo_width 16
#define but_quad16_lo_height 16
static unsigned char but_quad16_lo_bits[] = {
   0x00, 0x00, 0x00, 0x80, 0x00, 0xc0, 0x00, 0xc0, 0x00, 0xc0, 0x00, 0xc0,
   0x00, 0xc0, 0x00, 0xc0, 0x00, 0xc0, 0x00, 0xc0, 0x00, 0xc0, 0x00, 0xc0,
   0x00, 0xc0, 0x00, 0xc0, 0xfc, 0xff, 0xfe, 0xff};
