#define but_quad10_lo_width 10
#define but_quad10_lo_height 16
static unsigned char but_quad10_lo_bits[] = {
   0x00, 0x00, 0x00, 0x02, 0x00, 0x03, 0x00, 0x03, 0x00, 0x03, 0x00, 0x03,
   0x00, 0x03, 0x00, 0x03, 0x00, 0x03, 0x00, 0x03, 0x00, 0x03, 0x00, 0x03,
   0x00, 0x03, 0x00, 0x03, 0xfc, 0x03, 0xfe, 0x03};
