#define BM_next_width 16
#define BM_next_height 16
static char BM_next_bits[] = {
   0x00, 0x00, 0x00, 0x00, 0x08, 0x18, 0x18, 0x18, 0x38, 0x18, 0x78, 0x18,
   0xf8, 0x18, 0xf8, 0x19, 0xf8, 0x19, 0xf8, 0x18, 0x78, 0x18, 0x38, 0x18,
   0x18, 0x18, 0x08, 0x18, 0x00, 0x00, 0x00, 0x00};
