#define BM_prev_width 16
#define BM_prev_height 16
static unsigned char BM_prev_bits[] = {
   0x00, 0x00, 0x00, 0x00, 0x18, 0x10, 0x18, 0x18, 0x18, 0x1c, 0x18, 0x1e,
   0x18, 0x1f, 0x98, 0x1f, 0x98, 0x1f, 0x18, 0x1f, 0x18, 0x1e, 0x18, 0x1c,
   0x18, 0x18, 0x18, 0x10, 0x00, 0x00, 0x00, 0x00};
