#define BM_stop_width 16
#define BM_stop_height 16
static char BM_stop_bits[] = {
   0x00, 0x00, 0x00, 0x00, 0x00, 0x00, 0xf8, 0x1f, 0xf8, 0x1f, 0x18, 0x18,
   0x18, 0x18, 0x18, 0x18, 0x18, 0x18, 0x18, 0x18, 0x18, 0x18, 0xf8, 0x1f,
   0xf8, 0x1f, 0x00, 0x00, 0x00, 0x00, 0x00, 0x00};
