#define BM_step_prev_width 16
#define BM_step_prev_height 16
static char BM_step_prev_bits[] = {
   0x00, 0x00, 0x00, 0x00, 0x00, 0x19, 0x80, 0x19, 0xc0, 0x19, 0xe0, 0x19,
   0xf0, 0x19, 0xf8, 0x19, 0xf8, 0x19, 0xf0, 0x19, 0xe0, 0x19, 0xc0, 0x19,
   0x80, 0x19, 0x00, 0x19, 0x00, 0x00, 0x00, 0x00};
