#define BM_step_next_width 16
#define BM_step_next_height 16
static char BM_step_next_bits[] = {
   0x00, 0x00, 0x00, 0x00, 0x98, 0x00, 0x98, 0x01, 0x98, 0x03, 0x98, 0x07,
   0x98, 0x0f, 0x98, 0x1f, 0x98, 0x1f, 0x98, 0x0f, 0x98, 0x07, 0x98, 0x03,
   0x98, 0x01, 0x98, 0x00, 0x00, 0x00, 0x00, 0x00};
