#define BM_vol_off_width 16
#define BM_vol_off_height 16
static char BM_vol_off_bits[] = {
   0x00, 0x00, 0x00, 0x00, 0x00, 0x00, 0x00, 0x24, 0x00, 0x36, 0x00, 0x1f,
   0x80, 0x0f, 0xd8, 0x07, 0xf8, 0x07, 0xd8, 0x07, 0xc0, 0x07, 0x60, 0x07,
   0x30, 0x06, 0x18, 0x04, 0x00, 0x00, 0x00, 0x00};
