#define BM_vol_on_width 16
#define BM_vol_on_height 16
static unsigned char BM_vol_on_bits[] = {
   0x00, 0x00, 0x00, 0x00, 0x00, 0x00, 0x00, 0x04, 0x00, 0x06, 0x00, 0x07,
   0x80, 0x07, 0xd8, 0x07, 0xf8, 0x07, 0xd8, 0x07, 0x80, 0x07, 0x00, 0x07,
   0x00, 0x06, 0x00, 0x04, 0x00, 0x00, 0x00, 0x00};
