#define BM_vol_up_width 16
#define BM_vol_up_height 16
static char BM_vol_up_bits[] = {
   0x00, 0x00, 0x00, 0x00, 0x00, 0x00, 0x00, 0x09, 0x80, 0x11, 0xc0, 0x25,
   0xe0, 0x29, 0xfc, 0x29, 0xfc, 0x29, 0xfc, 0x29, 0xe0, 0x29, 0xc0, 0x25,
   0x80, 0x11, 0x00, 0x09, 0x00, 0x00, 0x00, 0x00};
